<mxfile host="app.diagrams.net" modified="2023-02-27T03:27:25.685Z" agent="5.0 (Windows NT 10.0; Win64; x64) AppleWebKit/537.36 (KHTML, like Gecko) Chrome/110.0.0.0 Safari/537.36 Edg/110.0.1587.56" etag="HevG_vjQD37gSFgRd5FS" version="20.8.23" type="github">
  <diagram id="C5RBs43oDa-KdzZeNtuy" name="Page-1">
    <mxGraphModel dx="874" dy="462" grid="1" gridSize="10" guides="1" tooltips="1" connect="1" arrows="1" fold="1" page="1" pageScale="1" pageWidth="827" pageHeight="1169" math="0" shadow="0">
      <root>
        <mxCell id="WIyWlLk6GJQsqaUBKTNV-0" />
        <mxCell id="WIyWlLk6GJQsqaUBKTNV-1" parent="WIyWlLk6GJQsqaUBKTNV-0" />
        <mxCell id="WIyWlLk6GJQsqaUBKTNV-2" value="" style="rounded=0;html=1;jettySize=auto;orthogonalLoop=1;fontSize=11;endArrow=block;endFill=0;endSize=8;strokeWidth=1;shadow=0;labelBackgroundColor=none;edgeStyle=orthogonalEdgeStyle;" parent="WIyWlLk6GJQsqaUBKTNV-1" source="WIyWlLk6GJQsqaUBKTNV-3" target="WIyWlLk6GJQsqaUBKTNV-6" edge="1">
          <mxGeometry relative="1" as="geometry" />
        </mxCell>
        <mxCell id="WIyWlLk6GJQsqaUBKTNV-3" value="&lt;font&gt;&lt;font&gt;preOrden(&lt;/font&gt;&lt;font style=&quot;border-color: rgb(0, 0, 0);&quot; color=&quot;#0000ff&quot;&gt;ABB&amp;nbsp;&lt;/font&gt;&lt;font style=&quot;border-color: rgb(0, 0, 0);&quot; color=&quot;#00ff00&quot;&gt;arbo&lt;/font&gt;&lt;font style=&quot;border-color: rgb(0, 0, 0);&quot; color=&quot;#00ff00&quot;&gt;l&lt;/font&gt;&lt;/font&gt;)" style="rounded=1;whiteSpace=wrap;html=1;fontSize=12;glass=0;strokeWidth=1;shadow=0;" parent="WIyWlLk6GJQsqaUBKTNV-1" vertex="1">
          <mxGeometry x="160" y="80" width="120" height="40" as="geometry" />
        </mxCell>
        <mxCell id="WIyWlLk6GJQsqaUBKTNV-4" value="Yes" style="rounded=0;html=1;jettySize=auto;orthogonalLoop=1;fontSize=11;endArrow=block;endFill=0;endSize=8;strokeWidth=1;shadow=0;labelBackgroundColor=none;edgeStyle=orthogonalEdgeStyle;" parent="WIyWlLk6GJQsqaUBKTNV-1" source="WIyWlLk6GJQsqaUBKTNV-6" edge="1">
          <mxGeometry x="-1" y="92" relative="1" as="geometry">
            <mxPoint x="-22" y="-60" as="offset" />
            <mxPoint x="220" y="290" as="targetPoint" />
          </mxGeometry>
        </mxCell>
        <mxCell id="WIyWlLk6GJQsqaUBKTNV-5" value="No" style="edgeStyle=orthogonalEdgeStyle;rounded=0;html=1;jettySize=auto;orthogonalLoop=1;fontSize=11;endArrow=block;endFill=0;endSize=8;strokeWidth=1;shadow=0;labelBackgroundColor=none;" parent="WIyWlLk6GJQsqaUBKTNV-1" source="WIyWlLk6GJQsqaUBKTNV-6" target="WIyWlLk6GJQsqaUBKTNV-7" edge="1">
          <mxGeometry x="-0.5" y="-20" relative="1" as="geometry">
            <mxPoint as="offset" />
          </mxGeometry>
        </mxCell>
        <mxCell id="WA9P2n-k6ibWD5KUAFjW-5" value="" style="edgeStyle=orthogonalEdgeStyle;rounded=0;orthogonalLoop=1;jettySize=auto;html=1;fontColor=#33FF33;" edge="1" parent="WIyWlLk6GJQsqaUBKTNV-1" source="WIyWlLk6GJQsqaUBKTNV-6" target="WIyWlLk6GJQsqaUBKTNV-12">
          <mxGeometry relative="1" as="geometry" />
        </mxCell>
        <mxCell id="WIyWlLk6GJQsqaUBKTNV-6" value="&lt;font style=&quot;border-color: rgb(0, 0, 0);&quot; color=&quot;#000000&quot;&gt;&lt;font style=&quot;border-color: rgb(0, 0, 0);&quot; color=&quot;#00ff00&quot;&gt;arbo&lt;/font&gt;&lt;font style=&quot;border-color: rgb(0, 0, 0);&quot; color=&quot;#00ff00&quot;&gt;l&lt;/font&gt;!=&lt;/font&gt;&lt;font style=&quot;border-color: rgb(0, 0, 0);&quot; color=&quot;#ff0000&quot;&gt;Nulo&lt;/font&gt;" style="rhombus;whiteSpace=wrap;html=1;shadow=0;fontFamily=Helvetica;fontSize=12;align=center;strokeWidth=1;spacing=6;spacingTop=-4;" parent="WIyWlLk6GJQsqaUBKTNV-1" vertex="1">
          <mxGeometry x="170" y="170" width="100" height="80" as="geometry" />
        </mxCell>
        <mxCell id="WA9P2n-k6ibWD5KUAFjW-0" value="" style="edgeStyle=orthogonalEdgeStyle;rounded=0;orthogonalLoop=1;jettySize=auto;html=1;" edge="1" parent="WIyWlLk6GJQsqaUBKTNV-1" source="WIyWlLk6GJQsqaUBKTNV-7" target="WIyWlLk6GJQsqaUBKTNV-11">
          <mxGeometry relative="1" as="geometry" />
        </mxCell>
        <mxCell id="WIyWlLk6GJQsqaUBKTNV-7" value="&lt;font style=&quot;border-color: rgb(0, 0, 0);&quot; color=&quot;#000000&quot;&gt;cout&amp;lt;&amp;lt;&lt;/font&gt;&amp;nbsp;&lt;span style=&quot;border-color: rgb(0, 0, 0); color: rgb(0, 255, 0);&quot;&gt;arbol&lt;/span&gt;&lt;span style=&quot;color: rgb(255, 255, 255);&quot;&gt;&amp;nbsp;&lt;/span&gt;&lt;font style=&quot;border-color: rgb(0, 0, 0);&quot; color=&quot;#000000&quot;&gt;-&amp;gt; &lt;/font&gt;&lt;font color=&quot;#66b2ff&quot; style=&quot;border-color: rgb(0, 0, 0);&quot;&gt;nro&lt;/font&gt;&lt;font style=&quot;border-color: rgb(0, 0, 0);&quot; color=&quot;#000000&quot;&gt; &amp;lt;&amp;lt; &quot; &quot;&lt;/font&gt;" style="rounded=1;whiteSpace=wrap;html=1;fontSize=12;glass=0;strokeWidth=1;shadow=0;" parent="WIyWlLk6GJQsqaUBKTNV-1" vertex="1">
          <mxGeometry x="150" y="290" width="140" height="40" as="geometry" />
        </mxCell>
        <mxCell id="WA9P2n-k6ibWD5KUAFjW-4" value="" style="edgeStyle=orthogonalEdgeStyle;rounded=0;orthogonalLoop=1;jettySize=auto;html=1;fontColor=#33FF33;" edge="1" parent="WIyWlLk6GJQsqaUBKTNV-1" source="WIyWlLk6GJQsqaUBKTNV-11" target="WA9P2n-k6ibWD5KUAFjW-3">
          <mxGeometry relative="1" as="geometry" />
        </mxCell>
        <mxCell id="WIyWlLk6GJQsqaUBKTNV-11" value="&lt;font style=&quot;border-color: rgb(0, 0, 0);&quot; color=&quot;#000000&quot;&gt;preOrden(&lt;/font&gt;&lt;font style=&quot;border-color: rgb(0, 0, 0);&quot;&gt;&lt;font color=&quot;#33ff33&quot;&gt;arbol&lt;span style=&quot;border-color: var(--border-color);&quot;&gt;&amp;nbsp;&lt;/span&gt;&lt;/font&gt;-&amp;gt;&lt;/font&gt;&lt;span style=&quot;color: rgb(255, 255, 255);&quot;&gt;&amp;nbsp;&lt;/span&gt;&lt;font style=&quot;border-color: rgb(0, 0, 0);&quot; color=&quot;#6666ff&quot;&gt;izq&lt;/font&gt;&lt;font style=&quot;border-color: rgb(0, 0, 0);&quot; color=&quot;#000000&quot;&gt;)&lt;/font&gt;" style="rounded=1;whiteSpace=wrap;html=1;fontSize=12;glass=0;strokeWidth=1;shadow=0;" parent="WIyWlLk6GJQsqaUBKTNV-1" vertex="1">
          <mxGeometry x="155" y="360" width="130" height="40" as="geometry" />
        </mxCell>
        <mxCell id="WIyWlLk6GJQsqaUBKTNV-12" value="Return" style="rounded=1;whiteSpace=wrap;html=1;fontSize=12;glass=0;strokeWidth=1;shadow=0;" parent="WIyWlLk6GJQsqaUBKTNV-1" vertex="1">
          <mxGeometry x="310" y="190" width="120" height="40" as="geometry" />
        </mxCell>
        <mxCell id="WA9P2n-k6ibWD5KUAFjW-3" value="&lt;font style=&quot;border-color: rgb(0, 0, 0);&quot; color=&quot;#000000&quot;&gt;preOrden(&lt;/font&gt;&lt;font style=&quot;border-color: rgb(0, 0, 0);&quot;&gt;&lt;font color=&quot;#33ff33&quot;&gt;arbol&lt;span style=&quot;border-color: var(--border-color);&quot;&gt;&amp;nbsp;&lt;/span&gt;&lt;/font&gt;-&amp;gt;&lt;/font&gt;&lt;span style=&quot;color: rgb(255, 255, 255);&quot;&gt;&amp;nbsp;&lt;/span&gt;&lt;font color=&quot;#6666ff&quot;&gt;der&lt;/font&gt;&lt;font style=&quot;border-color: rgb(0, 0, 0);&quot; color=&quot;#000000&quot;&gt;)&lt;/font&gt;" style="rounded=1;whiteSpace=wrap;html=1;fontSize=12;glass=0;strokeWidth=1;shadow=0;" vertex="1" parent="WIyWlLk6GJQsqaUBKTNV-1">
          <mxGeometry x="155" y="430" width="130" height="40" as="geometry" />
        </mxCell>
      </root>
    </mxGraphModel>
  </diagram>
</mxfile>
